<svg width="184" height="40" viewBox="0 0 184 40" fill="none" xmlns="http://www.w3.org/2000/svg">
<g clip-path="url(#clip0)">
<path d="M56.1026 10.6821C51.1301 10.6821 47.1062 14.7562 47.1062 19.7815C47.1062 24.8095 51.1301 28.8782 56.1026 28.8782C61.0699 28.8782 65.1017 24.8095 65.1017 19.7815C65.1017 14.7589 61.0699 10.6821 56.1026 10.6821ZM56.1026 24.6629C53.5439 24.6629 51.4727 22.566 51.4727 19.9814C51.4727 17.3968 53.5439 15.2998 56.1026 15.2998C58.6587 15.2998 60.7326 17.3941 60.7326 19.9814C60.7326 22.5686 58.6587 24.6629 56.1026 24.6629Z" fill="#444444"/>
<path d="M115.565 16.712C115.146 17.0877 114.527 17.0984 113.707 17.0984V17.1064H112.495V9.24066H112.492C112.455 8.13488 111.723 6.8186 110.653 6.78662H109.459H109.019H107.847H107.607C107.285 6.78662 107.114 7.21028 107.338 7.46608C107.71 7.8924 108.005 8.5159 108.005 9.34457V30.89C108.005 31.724 108.674 32.4008 109.499 32.4008H112.498V21.6547H115.28C115.81 21.6547 116.24 21.2204 116.24 20.6848V19.7842V18.5745V18.1295V17.2289V17.1064V16.9838C116.237 16.6587 115.818 16.4855 115.565 16.712Z" fill="#444444"/>
<path d="M104.255 32.0598L104.236 30.8634L104.231 30.4237L104.236 29.3366L104.234 29.0968C104.229 28.7744 103.889 28.7318 103.559 28.8383C102.832 29.0728 102.421 29.1288 101.604 29.1421L96.576 29.2167V26.7414C100.328 25.6462 103.077 22.153 103.077 18.0043C103.077 15.8141 102.31 13.8024 101.032 12.233L101.514 12.225V12.2223C102.611 12.1877 103.986 11.7187 103.999 10.6449L103.981 9.44852L103.976 9.00887L103.981 7.92174L103.978 7.68193C103.973 7.35952 103.633 7.31689 103.304 7.42347C102.576 7.65795 102.165 7.7139 101.348 7.72723L96.2361 7.80183V5.1746C96.2361 4.63903 95.8065 4.20471 95.2769 4.20471H94.3862H93.1898H92.7497H91.8591H91.6193C91.2951 4.20471 91.1265 4.62837 91.3478 4.88417C91.7194 5.31049 91.7299 5.934 91.7299 6.76267H91.7378V7.87111L85.5399 7.96171C84.7151 7.97503 84.0564 8.65982 84.0695 9.49381L84.1117 12.4834L86.9656 12.4408C85.7877 13.9809 85.0841 15.91 85.0841 18.007C85.0841 22.3422 88.0776 25.9606 92.0883 26.8772V29.2886L85.7982 29.3819C84.9734 29.3952 84.3146 30.08 84.3251 30.914L84.3673 33.9063L101.773 33.6505V33.6478C102.869 33.6025 104.242 33.1309 104.255 32.0598ZM89.4479 18.0923C89.4479 15.5077 91.5191 13.4107 94.0779 13.4107C96.634 13.4107 98.7078 15.505 98.7078 18.0923C98.7078 20.6769 96.634 22.7739 94.0779 22.7739C91.5191 22.7765 89.4479 20.6795 89.4479 18.0923Z" fill="#444444"/>
<path d="M149.39 9.22469C149.353 8.11891 148.62 6.80263 147.55 6.77332H146.357H145.917H144.744H144.504C144.183 6.77332 144.011 7.19698 144.235 7.45277C144.607 7.87643 144.902 8.5026 144.902 9.33127V30.8767C144.902 31.7107 145.571 32.3875 146.396 32.3875H149.395V9.22469H149.39Z" fill="#444444"/>
<path d="M130.712 10.4823C125.739 10.4823 121.715 14.5564 121.715 19.579C121.715 24.607 125.739 28.6757 130.712 28.6757C135.679 28.6757 139.711 24.607 139.711 19.579C139.711 14.5564 135.679 10.4823 130.712 10.4823ZM130.712 24.3565C128.153 24.3565 126.082 22.2595 126.082 19.6749C126.082 17.0903 128.153 14.9934 130.712 14.9934C133.268 14.9934 135.342 17.0877 135.342 19.6749C135.342 22.2595 133.268 24.3565 130.712 24.3565Z" fill="#444444"/>
<path d="M183.984 36.8799L183.979 36.4349L183.96 35.4997L183.958 35.2572C183.953 34.9294 183.615 34.8362 183.333 34.9934C182.777 35.2998 182.377 35.3931 181.62 35.4037H170.685V28.5052H168.063C166.998 28.5052 166.136 29.3766 166.136 30.453V35.4037V36.704V38.0843C166.136 39.1447 166.985 40.0027 168.034 40.0027H181.894V39.9921C182.88 39.8935 183.995 39.1447 184.005 38.0949L183.984 36.8799Z" fill="#444444"/>
<path d="M183.997 6.67464C183.96 5.56886 183.228 4.25258 182.158 4.22327H180.964H180.524H179.351H179.112C178.79 4.22327 178.619 4.64693 178.843 4.90272C179.214 5.32638 179.51 5.95255 179.51 6.78122V28.3267C179.51 29.1607 180.179 29.8374 181.004 29.8374H184.003V6.67464H183.997Z" fill="#444444"/>
<path d="M165.317 6.59741C160.344 6.59741 156.32 10.6715 156.32 15.6941C156.32 20.7221 160.344 24.7909 165.317 24.7909C170.284 24.7909 174.316 20.7221 174.316 15.6941C174.316 10.6742 170.284 6.59741 165.317 6.59741ZM165.319 20.4743C162.761 20.4743 160.689 18.3773 160.689 15.7927C160.689 13.2081 162.761 11.1111 165.319 11.1111C167.875 11.1111 169.949 13.2055 169.949 15.7927C169.949 18.3773 167.875 20.4743 165.319 20.4743Z" fill="#444444"/>
<path d="M180.74 13.5199H173.104V18.0629H180.74V13.5199Z" fill="#444444"/>
<path d="M165.781 29.7496C165.804 29.7496 165.828 29.7523 165.852 29.7523C165.875 29.7523 165.899 29.7496 165.923 29.7496C165.899 29.7496 165.875 29.7469 165.852 29.7469C165.825 29.7469 165.804 29.7496 165.781 29.7496Z" fill="#231815"/>
<path d="M70.6882 12.3288C70.5538 12.3288 70.4247 12.3182 70.293 12.3075V30.874C70.293 31.708 70.9623 32.3848 71.7871 32.3848H74.7859V10.1252C73.8979 11.4548 72.3932 12.3288 70.6882 12.3288Z" fill="#444444"/>
<path d="M74.7805 9.22469C74.7436 8.1189 74.011 6.80263 72.9411 6.77332H71.7474H71.3073H70.1347H69.8949C69.5734 6.77332 69.4021 7.19698 69.6261 7.45277C69.9976 7.87643 70.2928 8.5026 70.2928 9.33127V12.3102C70.4245 12.3209 70.5537 12.3315 70.6881 12.3315C72.393 12.3315 73.8977 11.4576 74.7857 10.128V9.22735H74.7805V9.22469Z" fill="#EC1468"/>
<path d="M112.492 9.22469C112.455 8.1189 111.723 6.80263 110.653 6.77332H109.459H109.019H107.847H107.607C107.285 6.77332 107.114 7.19698 107.338 7.45277C107.71 7.87643 108.005 8.5026 108.005 9.33127V12.3102C108.136 12.3209 108.266 12.3315 108.4 12.3315C110.105 12.3315 111.61 11.4576 112.498 10.128V9.22735H112.492V9.22469Z" fill="#EC1468"/>
<path d="M149.39 9.25923C149.353 8.15345 148.62 6.83717 147.55 6.80786H146.357H145.917H144.744H144.504C144.183 6.80786 144.011 7.23152 144.235 7.48732C144.607 7.91098 144.902 8.53715 144.902 9.36582V12.3474C145.034 12.3581 145.163 12.3687 145.297 12.3687C147.002 12.3687 148.507 11.4948 149.395 10.1652V9.26456H149.39V9.25923Z" fill="#EC1468"/>
<path d="M183.997 6.67464C183.96 5.56886 183.228 4.25258 182.158 4.22327H180.964H180.524H179.351H179.112C178.79 4.22327 178.619 4.64693 178.843 4.90272C179.214 5.32638 179.51 5.95255 179.51 6.78122V9.76283C179.641 9.77349 179.77 9.78415 179.905 9.78415C181.61 9.78415 183.114 8.91018 184.003 7.58058V6.67997H183.997V6.67464Z" fill="#EC1468"/>
<path d="M17.8188 29.7069C17.8188 29.7522 17.8215 29.7975 17.8215 29.8401C20.0508 29.8401 22.0825 30.6901 23.6188 32.0863C23.1234 31.4229 22.823 30.6022 22.823 29.7069C22.823 27.5273 24.5701 25.7607 26.7257 25.7607C27.7613 25.7607 28.6994 26.1711 29.3977 26.8372C27.8588 25.2598 26.9049 23.0935 26.8943 20.7034C26.8364 20.7034 26.781 20.6981 26.7231 20.6981C21.8058 20.6981 17.8188 24.7322 17.8188 29.7069ZM26.7178 20.7381C26.6993 20.7381 26.6783 20.7381 26.6598 20.7354C26.6466 20.7354 26.6361 20.7354 26.6229 20.7354C26.6308 20.7354 26.6387 20.7354 26.6466 20.7354C26.6704 20.7354 26.6941 20.7328 26.7178 20.7328C26.7204 20.7328 26.7231 20.7328 26.7257 20.7328C26.7468 20.7328 26.7679 20.7354 26.7863 20.7354C26.7652 20.7354 26.7415 20.7381 26.7178 20.7381Z" fill="#D3CE20"/>
<path d="M26.6599 20.7355C26.6784 20.7355 26.6994 20.7381 26.7179 20.7381C26.7416 20.7381 26.7653 20.7355 26.789 20.7355C26.7679 20.7355 26.7469 20.7355 26.7284 20.7328C26.7047 20.7328 26.681 20.7355 26.6599 20.7355Z" fill="#EC1468"/>
<path d="M26.7179 20.7328C26.6942 20.7328 26.6704 20.7355 26.6467 20.7355C26.652 20.7355 26.6546 20.7355 26.6599 20.7355C26.681 20.7355 26.7047 20.7328 26.7258 20.7328C26.7231 20.7328 26.7205 20.7328 26.7179 20.7328Z" fill="#EC1468"/>
<path d="M29.1029 14.8175C27.5719 16.0086 25.3715 15.8993 23.9696 14.4818C22.4781 12.9737 22.4491 10.5463 23.8826 9.00085C22.3174 10.541 20.1829 11.4895 17.827 11.4895C17.8244 11.5508 17.8218 11.6094 17.8218 11.6707C17.8218 11.6814 17.8218 11.6947 17.8218 11.7054C17.8244 14.0049 18.694 16.3043 20.4306 18.0603C22.2119 19.8615 24.5625 20.7381 26.8973 20.6955C26.8973 20.6875 26.8973 20.6769 26.8973 20.6689C26.8946 18.42 27.73 16.371 29.1029 14.8175Z" fill="#FFBE1D"/>
<path d="M8.90948 20.6929C8.85414 20.6929 8.80144 20.6955 8.7461 20.6982C8.73556 23.067 7.80008 25.2146 6.28223 26.7893C6.97527 26.1498 7.89494 25.7555 8.90948 25.7555C11.065 25.7555 12.8122 27.5221 12.8122 29.7017C12.8122 30.6049 12.5091 31.4336 12.0032 32.0997C13.5421 30.6982 15.5791 29.8429 17.8137 29.8429C17.8137 29.7949 17.8163 29.7496 17.8163 29.7017C17.819 24.7243 13.8293 20.6929 8.90948 20.6929Z" fill="#9E6BAC"/>
<path d="M15.2128 18.0522C16.9467 16.299 17.8163 14.0021 17.8216 11.7026C17.8216 11.692 17.8216 11.6786 17.8216 11.668C17.8216 11.6067 17.819 11.5481 17.8163 11.4868C15.4605 11.4841 13.326 10.5329 11.7607 8.9928C13.189 10.5409 13.1626 12.963 11.6711 14.4737C10.2692 15.8913 8.06887 16.0005 6.53784 14.8095C7.91076 16.3629 8.74611 18.4119 8.74611 20.6608C8.74611 20.6688 8.74611 20.6795 8.74611 20.6874C11.0809 20.7327 13.4288 19.8561 15.2128 18.0522Z" fill="#59C6B1"/>
<path d="M6.28229 26.7866C6.20323 26.8586 6.12945 26.9332 6.05566 27.0131C6.13208 26.9385 6.2085 26.8639 6.28229 26.7866Z" fill="#231815"/>
<path d="M11.7607 8.99281C11.7291 8.96084 11.7028 8.92353 11.6711 8.89156C11.6422 8.86225 11.6105 8.83827 11.5815 8.80896C11.6395 8.87291 11.7001 8.93419 11.7607 8.99281Z" fill="#231815"/>
<path d="M37.5589 9.90141L34.7973 7.10631L35.1399 6.75992C36.1175 5.77138 36.1175 4.17266 35.1399 3.18411C34.1622 2.19557 32.5811 2.19557 31.6035 3.18411L31.2609 3.5305L28.4966 0.73807C27.851 0.085259 26.9445 -0.133233 26.1197 0.0772654C25.6954 0.183847 25.2923 0.402339 24.9602 0.73807C24.3436 1.36157 24.117 2.22755 24.2777 3.02957C22.8679 3.43458 21.5372 4.1993 20.4278 5.32107C18.7386 7.02904 17.8717 9.25126 17.8242 11.4895C20.1801 11.4895 22.3145 10.5382 23.8798 9.00079C23.9404 8.94217 24.001 8.88089 24.0616 8.81694C25.59 7.36477 27.9933 7.39141 29.4874 8.90221C30.892 10.3224 30.9974 12.5526 29.8142 14.1007C29.5639 14.3272 29.3241 14.567 29.1027 14.8201C27.7298 16.3736 26.8944 18.4226 26.8944 20.6688C26.8944 20.6768 26.8944 20.6874 26.8944 20.6954C29.1185 20.6528 31.3294 19.7762 33.0265 18.0602C34.1359 16.9384 34.8895 15.5929 35.2927 14.1673C36.0859 14.3299 36.9423 14.1007 37.5589 13.4772C37.8962 13.1362 38.1123 12.7258 38.2177 12.2915C38.418 11.4602 38.2019 10.5489 37.5589 9.90141ZM26.0802 5.44364C26.0038 5.68345 25.9115 5.91793 25.814 6.14708C25.9115 5.91793 26.0011 5.68345 26.0802 5.44364Z" fill="#EC1468"/>
<path d="M15.2128 5.31317C13.5289 3.61053 11.3417 2.73657 9.1361 2.68061C6.7829 2.62199 4.41126 3.49862 2.61408 5.31317C0.824809 7.12239 -0.0421586 9.50715 0.00790947 11.8733C0.0553423 14.1141 0.92231 16.3417 2.61408 18.0523C4.31112 19.7683 6.52202 20.6449 8.7461 20.6875C8.7461 20.6795 8.7461 20.6689 8.7461 20.6609C8.7461 18.4147 7.91075 16.3657 6.53783 14.8096C6.40344 14.7057 6.27432 14.5964 6.1531 14.4712C6.03188 14.3513 5.92648 14.2207 5.82634 14.0902C4.64316 12.5421 4.74856 10.3118 6.1531 8.89164C7.64724 7.38085 10.0505 7.35421 11.5815 8.80904C11.6105 8.83835 11.6421 8.86233 11.6711 8.89164C11.7027 8.92362 11.7317 8.95826 11.7607 8.9929C13.326 10.533 15.4605 11.4842 17.8163 11.4869C17.7689 9.24869 16.9019 7.0238 15.2128 5.31317Z" fill="#EC1468"/>
<path d="M35.6299 29.4538C35.4981 24.6523 31.6561 20.7941 26.897 20.7035C26.9075 23.0936 27.8588 25.2598 29.4004 26.8373C29.4478 26.8825 29.4952 26.9278 29.54 26.9758C30.2146 27.6846 30.6284 28.6465 30.6284 29.707C30.6284 31.8865 28.8812 33.6531 26.7257 33.6531C25.8245 33.6531 24.968 33.3813 24.3382 32.8245C24.0747 32.59 23.8718 32.3608 23.6162 32.0864C22.1985 30.5649 20.0482 29.8402 17.8188 29.8402C17.89 34.679 21.7294 38.5905 26.5043 38.7078C26.5781 38.7104 26.6519 38.7131 26.7257 38.7131C31.6455 38.7131 35.6351 34.679 35.6351 29.7043C35.6351 29.6217 35.6325 29.5364 35.6299 29.4538Z" fill="#EC1468"/>
<path d="M12.0032 32.097C11.8029 32.3608 11.571 32.6006 11.3101 32.8057C10.6487 33.3307 9.81597 33.6451 8.90947 33.6451C6.75391 33.6451 5.0068 31.8785 5.0068 29.6989C5.0068 28.6597 5.40735 27.7165 6.0556 27.013C6.12675 26.9358 6.20317 26.8612 6.28222 26.7866C7.79744 25.2118 8.73555 23.0642 8.74609 20.6954C3.98436 20.7834 0.137028 24.6443 0.00527032 29.4458C0.00527032 29.531 0 29.6163 0 29.6989C0 34.6736 3.98963 38.7077 8.90947 38.7077C8.98326 38.7077 9.05704 38.705 9.13083 38.7024C13.9031 38.5851 17.7425 34.6763 17.8163 29.8401C15.5791 29.8401 13.5421 30.6954 12.0032 32.097Z" fill="#EC1468"/>
</g>
<defs>
<clipPath id="clip0">
<rect width="184" height="40" fill="white"/>
</clipPath>
</defs>
</svg>
